<svg width="27" height="31" viewBox="0 0 27 31" fill="none" xmlns="http://www.w3.org/2000/svg">
<path d="M26.1302 25.6698C24.0691 27.8037 21.4215 29.2784 18.5223 29.9076C15.6231 30.5368 12.6024 30.2921 9.84218 29.2045C7.08201 28.1169 4.70633 26.2352 3.01556 23.7975C1.3248 21.3597 0.394889 18.4753 0.343424 15.509C0.291959 12.5427 1.12125 9.62781 2.72643 7.13285C4.33161 4.6379 6.64059 2.67496 9.36137 1.49227C12.0822 0.309575 15.0926 -0.0397505 18.0119 0.488464C20.9312 1.01668 23.6283 2.39871 25.7622 4.45979L15.3412 15.2488L26.1302 25.6698Z" fill="url(#paint0_linear_156_6777)"/>
<defs>
<linearGradient id="paint0_linear_156_6777" x1="30.5991" y1="29.9863" x2="0.0128338" y2="29.9131" gradientUnits="userSpaceOnUse">
<stop stop-color="#F06C2D"/>
<stop offset="0.96875" stop-color="#BD20BA"/>
<stop offset="1" stop-color="#C223C6"/>
</linearGradient>
</defs>
</svg>
