<svg width="30" height="30" viewBox="0 0 30 30" fill="none" xmlns="http://www.w3.org/2000/svg">
<path d="M11.6874 18.5723C6.73264 18.5723 2.50073 19.3377 2.50073 22.3968C2.50073 25.4584 6.70573 26.2501 11.6874 26.2501C16.6422 26.2501 20.8741 25.4847 20.8741 22.4256C20.8741 19.364 16.6691 18.5723 11.6874 18.5723" fill="#BD21B8"/>
<path d="M11.6874 15.656C15.0619 15.656 17.7662 13.0077 17.7662 9.70301C17.7662 6.39831 15.0619 3.75 11.6874 3.75C8.31413 3.75 5.60864 6.39831 5.60864 9.70301C5.60864 13.0077 8.31413 15.656 11.6874 15.656" fill="#EE6931"/>
<path d="M20.2175 9.81104C20.2175 11.4939 19.7013 13.0642 18.7962 14.3686C18.702 14.5028 18.7852 14.6836 18.9491 14.7124C19.1766 14.7495 19.4102 14.7723 19.6487 14.7771C22.0215 14.8382 24.1509 13.3421 24.7392 11.0891C25.6113 7.74605 23.0526 4.74438 19.793 4.74438C19.4396 4.74438 19.1008 4.78032 18.7705 4.8462C18.7253 4.85578 18.6764 4.87734 18.6519 4.91567C18.6201 4.96478 18.6433 5.02826 18.6751 5.07018C19.6548 6.4153 20.2175 8.05268 20.2175 9.81104" fill="#EE6931"/>
<path d="M27.2247 18.9617C26.7905 18.055 25.7423 17.4333 24.1474 17.1279C23.3952 16.9482 21.3575 16.6931 19.4629 16.729C19.4348 16.7326 19.4189 16.7518 19.4164 16.7637C19.4128 16.7829 19.4213 16.8117 19.458 16.832C20.3337 17.256 23.7181 19.1006 23.2924 22.991C23.2741 23.1611 23.4123 23.3049 23.5847 23.2809C24.4177 23.1647 26.5605 22.7132 27.2247 21.3094C27.5928 20.5667 27.5928 19.7043 27.2247 18.9617" fill="#BD21B8"/>
</svg>
